<?xml version="1.0" encoding="UTF-8" standalone="no"?>
<svg width="12px" height="12px" viewBox="0 0 12 12" version="1.1" xmlns="http://www.w3.org/2000/svg" xmlns:xlink="http://www.w3.org/1999/xlink" xmlns:sketch="http://www.bohemiancoding.com/sketch/ns">
    <!-- Generator: Sketch 3.3.2 (12043) - http://www.bohemiancoding.com/sketch -->
    <title>Settings</title>
    <desc>Created with Sketch.</desc>
    <defs></defs>
    <g id="Page-2" stroke="none" stroke-width="1" fill="none" fill-rule="evenodd" sketch:type="MSPage">
        <g id="STC-Employee-list__department-list_admin" sketch:type="MSArtboardGroup" transform="translate(-815.000000, -371.000000)" fill="#333333">
            <path d="M822.233325,372.551239 L821.962591,371.197571 C821.938942,371.079327 821.834621,371 821.725506,371 L820.274494,371 C820.17618,371 820.059232,371.088455 820.037409,371.197571 L819.766675,372.551239 C819.399618,372.652775 819.050923,372.798521 818.726681,372.982384 L817.577718,372.216408 C817.477384,372.149519 817.347526,372.167193 817.27037,372.244349 L816.244349,373.27037 C816.174831,373.339888 816.154683,373.48513 816.216408,373.577718 L816.982384,374.726681 C816.798521,375.050923 816.652775,375.399618 816.551239,375.766675 L815.197571,376.037409 C815.079327,376.061058 815,376.165379 815,376.274494 L815,377.725506 C815,377.82382 815.088455,377.940768 815.197571,377.962591 L816.551239,378.233325 C816.652775,378.600382 816.798521,378.949077 816.982384,379.273319 L816.216408,380.422282 C816.149519,380.522616 816.167193,380.652474 816.244349,380.72963 L817.27037,381.755651 C817.339888,381.825169 817.48513,381.845317 817.577718,381.783592 L818.726681,381.017616 C819.050923,381.201479 819.399618,381.347225 819.766675,381.448761 L820.037409,382.802429 C820.061058,382.920673 820.165379,383 820.274494,383 L821.725506,383 C821.82382,383 821.940768,382.911545 821.962591,382.802429 L822.233325,381.448761 C822.600382,381.347225 822.949077,381.201479 823.273319,381.017616 L824.422282,381.783592 C824.522616,381.850481 824.652474,381.832807 824.72963,381.755651 L825.755651,380.72963 C825.825169,380.660112 825.845317,380.51487 825.783592,380.422282 L825.017616,379.273319 C825.201479,378.949077 825.347225,378.600382 825.448761,378.233325 L826.802429,377.962591 C826.920673,377.938942 827,377.834621 827,377.725506 L827,376.274494 C827,376.17618 826.911545,376.059232 826.802429,376.037409 L825.448761,375.766675 C825.347225,375.399618 825.201479,375.050923 825.017616,374.726681 L825.783592,373.577718 C825.850481,373.477384 825.832807,373.347526 825.755651,373.27037 L824.72963,372.244349 C824.660112,372.174831 824.51487,372.154683 824.422282,372.216408 L823.273319,372.982384 C822.949077,372.798521 822.600382,372.652775 822.233325,372.551239 L822.233325,372.551239 Z M821.000028,379.307692 C822.274531,379.307692 823.30772,378.274503 823.30772,377 C823.30772,375.725497 822.274531,374.692308 821.000028,374.692308 C819.725525,374.692308 818.692336,375.725497 818.692336,377 C818.692336,378.274503 819.725525,379.307692 821.000028,379.307692 Z" id="Settings" sketch:type="MSShapeGroup"></path>
        </g>
    </g>
</svg>